<svg width="32" height="32" viewBox="0 0 32 32" fill="none" xmlns="http://www.w3.org/2000/svg">
<path d="M28.1835 0.00920007C27.0957 -0.0995809 26.2254 0.770667 26.2254 1.85848C26.2254 2.40238 26.443 3.05507 26.8781 3.38141L25.0288 5.23069L26.8781 6.97118L28.6186 5.1219C29.0537 5.55703 29.5976 5.77459 30.1415 5.77459C31.2294 5.77459 32.0996 4.90434 31.9908 3.81653C32.0996 2.72872 31.2294 1.85848 30.1415 1.85848C30.1415 0.770667 29.2713 -0.0995809 28.1835 0.00920007ZM26.443 24.5937L24.5937 26.3342L26.8781 28.6186C26.443 29.0537 26.2254 29.5976 26.2254 30.1415C26.2254 31.2293 27.0957 32.0996 28.1835 31.9908C29.2713 32.0996 30.1415 31.2293 30.1415 30.1415C31.2294 30.1415 32.0996 29.2713 31.9908 28.1835C32.0996 27.0957 31.2294 26.2254 30.1415 26.2254C29.5976 26.2254 29.0537 26.443 28.6186 26.8781L26.443 24.5937ZM16 4.46922C9.58194 4.46922 4.46924 9.69071 4.46924 16V20.46C4.46924 20.46 5.99217 21.3303 8.38535 23.6147C10.6698 26.0078 11.54 27.5308 11.54 27.5308H20.46C20.46 27.5308 21.3303 26.0078 23.6147 23.6147C26.0079 21.3303 27.5308 20.46 27.5308 20.46V16C27.5308 9.69071 22.4181 4.46922 16 4.46922Z" fill="white" fill-opacity="0.87"/>
<path d="M3.81653 0.00920007C4.90434 -0.0995809 5.77459 0.770667 5.77459 1.85848C5.77459 2.40238 5.55703 3.05507 5.1219 3.38141L6.97118 5.23069L5.1219 6.97118L3.38141 5.1219C2.94629 5.55703 2.40238 5.77459 1.85848 5.77459C0.770667 5.77459 -0.0995809 4.90434 0.00920007 3.81653C-0.0995809 2.72872 0.770667 1.85848 1.85848 1.85848C1.85848 0.770667 2.72872 -0.0995809 3.81653 0.00920007ZM5.55703 24.5937L7.4063 26.3342L5.1219 28.6186C5.55703 29.0537 5.77459 29.5976 5.77459 30.1415C5.77459 31.2293 4.90434 32.0996 3.81653 31.9908C2.72872 32.0996 1.85848 31.2293 1.85848 30.1415C0.770667 30.1415 -0.0995809 29.2713 0.00920007 28.1835C-0.0995809 27.0957 0.770667 26.2254 1.85848 26.2254C2.40238 26.2254 2.94629 26.443 3.38141 26.8781L5.55703 24.5937Z" fill="white" fill-opacity="0.87"/>
<path d="M16 20.0249C15.8459 20.0236 15.6942 20.0631 15.5604 20.1396C15.4267 20.216 15.3156 20.3266 15.2385 20.4601L13.8244 22.6357C13.7477 22.7685 13.7074 22.9193 13.7078 23.0728C13.7081 23.2262 13.749 23.3768 13.8263 23.5093C13.9036 23.6419 14.0146 23.7516 14.148 23.8274C14.2814 23.9032 14.4324 23.9424 14.5858 23.9411H17.4141C17.5676 23.9424 17.7186 23.9032 17.852 23.8274C17.9854 23.7516 18.0964 23.6419 18.1737 23.5093C18.251 23.3768 18.2919 23.2262 18.2922 23.0728C18.2926 22.9193 18.2523 22.7685 18.1756 22.6357L16.7615 20.4601C16.6844 20.3266 16.5733 20.216 16.4395 20.1396C16.3058 20.0631 16.1541 20.0236 16 20.0249Z" fill="#121212"/>
<path d="M21.439 21.1127C23.5597 21.1127 25.2789 19.3935 25.2789 17.2727C25.2789 15.152 23.5597 13.4327 21.439 13.4327C19.3182 13.4327 17.599 15.152 17.599 17.2727C17.599 19.3935 19.3182 21.1127 21.439 21.1127Z" fill="#121212"/>
<path d="M10.5609 21.1127C12.6817 21.1127 14.4009 19.3935 14.4009 17.2727C14.4009 15.152 12.6817 13.4327 10.5609 13.4327C8.44016 13.4327 6.72095 15.152 6.72095 17.2727C6.72095 19.3935 8.44016 21.1127 10.5609 21.1127Z" fill="#121212"/>
</svg>
